<svg xmlns="http://www.w3.org/2000/svg" width="1197" height="454" fill="none"><rect id="backgroundrect" width="100%" height="100%" x="0" y="0" fill="none" stroke="none"/>


<g class="currentLayer" style=""><title>Layer 1</title><path d="M2.024,72 V1.92 H41.576 V72 H32.936 V9.792 H10.664 V72 H2.024 zM59.3945,72 V1.92 H81.9545 C86.3065,1.92 90.0825,2.784 93.2825,4.5120000000000005 C96.4825,6.176 98.9465,8.544 100.675,11.616 C102.467,14.688 103.363,18.336 103.363,22.56 C103.363,26.72 102.467,30.368 100.675,33.504 C98.9465,36.576 96.4825,38.976 93.2825,40.704 C90.0825,42.368 86.3065,43.2 81.9545,43.2 H68.0345 V72 H59.3945 zM68.0345,35.424 H81.9545 C85.7305,35.424 88.7385,34.272 90.9785,31.968 C93.2825,29.6 94.4345,26.464 94.4345,22.56 C94.4345,18.592 93.2825,15.456 90.9785,13.152 C88.7385,10.848 85.7305,9.696 81.9545,9.696 H68.0345 V35.424 zM116.765,72 V1.92 H125.117 V41.28 C125.117,43.584 125.053,46.048 124.925,48.672 C124.861,51.232 124.765,53.696 124.637,56.064 C124.509,58.368 124.381,60.32 124.253,61.92 L145.565,1.92 H157.085 V72 H148.733 V32.64 C148.733,30.272 148.765,27.808 148.829,25.248 C148.957,22.624 149.085,20.16 149.213,17.856 C149.405,15.488 149.565,13.536 149.693,12 L128.285,72 H116.765 zM174.616,72 V1.92 H194.488 C200.888,1.92 205.88,3.52 209.464,6.72 C213.112,9.92 214.936,14.368 214.936,20.064 C214.936,23.264 214.264,26.048 212.92,28.416 C211.576,30.784 209.656,32.608 207.16,33.888 C204.728,35.168 201.784,35.776 198.328,35.712 V34.272 C202.04,34.208 205.24,34.912 207.928,36.384 C210.68,37.856 212.792,39.968 214.264,42.72 C215.8,45.472 216.568,48.736 216.568,52.512 C216.568,56.48 215.736,59.936 214.072,62.88 C212.408,65.824 210.04,68.096 206.968,69.696 C203.896,71.232 200.216,72 195.928,72 H174.616 zM183.064,64.224 H194.968 C199,64.224 202.168,63.168 204.472,61.056 C206.84,58.88 208.024,55.936 208.024,52.224 C208.024,48.384 206.84,45.28 204.472,42.912 C202.168,40.48 199,39.264 194.968,39.264 H183.064 V64.224 zM183.064,31.776 H194.392 C198.104,31.776 201.016,30.784 203.128,28.8 C205.304,26.816 206.392,24.128 206.392,20.736 C206.392,17.344 205.336,14.656 203.224,12.672 C201.112,10.688 198.2,9.696 194.488,9.696 H183.064 V31.776 zM232.85,72 V1.92 H273.17 V9.792 H241.394 V31.488 H269.81 V39.264 H241.394 V64.128 H273.17 V72 H232.85 zM305.293,72 V9.696 H286.093 V1.824 H333.133 V9.696 H313.933 V72 H305.293 zM354.215,87.36 L361.895,57.504 H374.375 L361.895,87.36 H354.215 zM460.796,72 V1.92 H472.124 L479.42,24.576 C480.124,26.624 480.764,28.672 481.34,30.72 C481.916,32.704 482.332,34.24 482.588,35.328 C482.908,34.24 483.324,32.704 483.836,30.72 C484.348,28.672 484.924,26.592 485.564,24.48 L492.476,1.92 H503.804 V72 H495.356 V46.56 C495.356,43.744 495.452,40.544 495.644,36.96 C495.836,33.376 496.092,29.728 496.412,26.016 C496.732,22.24 497.052,18.656 497.372,15.264 C497.756,11.808 498.076,8.8 498.332,6.23999 L487.004,41.28 H477.884 L466.46,6.23999 C466.78,8.736 467.1,11.648 467.42,14.975999999999999 C467.74,18.24 468.028,21.728 468.284,25.44 C468.54,29.088 468.764,32.736 468.956,36.384 C469.148,40.032 469.244,43.424 469.244,46.56 V72 H460.796 zM517.303,72 V1.92 H525.367 V30.72 H529.303 C535.127,30.72 539.703,32.352 543.031,35.616 C546.423,38.88 548.119,43.328 548.119,48.96 V53.856 C548.119,59.488 546.455,63.936 543.127,67.2 C539.799,70.4 535.191,72 529.303,72 H517.303 zM525.367,64.416 H529.303 C532.695,64.416 535.287,63.488 537.079,61.632 C538.935,59.712 539.863,57.088 539.863,53.76 V48.96 C539.863,45.568 538.935,42.944 537.079,41.088 C535.287,39.232 532.695,38.304 529.303,38.304 H525.367 V64.416 zM554.359,72 V1.92 H562.423 V72 H554.359 zM639.628,44.16 V36.48 H670.348 V44.16 H639.628 zM770.497,72.96 C766.273,72.96 762.593,72.16 759.457,70.56 C756.385,68.96 753.985,66.656 752.257,63.648 C750.593,60.576 749.761,56.96 749.761,52.8 V21.12 C749.761,16.896 750.593,13.28 752.257,10.272 C753.985,7.264 756.385,4.96 759.457,3.36 C762.593,1.7600000000000002 766.273,0.9599990000000002 770.497,0.9599990000000002 C774.721,0.9599990000000002 778.369,1.792 781.441,3.456 C784.513,5.056 786.881,7.36 788.545,10.368 C790.209,13.376 791.041,16.96 791.041,21.12 H782.401 C782.401,17.152 781.345,14.112 779.233,12 C777.185,9.824 774.273,8.736 770.497,8.736 C766.721,8.736 763.745,9.792 761.569,11.904 C759.457,14.016 758.401,17.056 758.401,21.024 V52.8 C758.401,56.768 759.457,59.84 761.569,62.016 C763.745,64.128 766.721,65.184 770.497,65.184 C774.273,65.184 777.185,64.128 779.233,62.016 C781.345,59.84 782.401,56.768 782.401,52.8 H791.041 C791.041,56.896 790.209,60.48 788.545,63.552 C786.881,66.56 784.513,68.896 781.441,70.56 C778.369,72.16 774.721,72.96 770.497,72.96 zM827.675,72.96 C823.451,72.96 819.803,72.16 816.731,70.56 C813.723,68.96 811.387,66.656 809.723,63.648 C808.123,60.576 807.323,56.96 807.323,52.8 V21.12 C807.323,16.896 808.123,13.28 809.723,10.272 C811.387,7.264 813.723,4.96 816.731,3.36 C819.803,1.7600000000000002 823.451,0.9599990000000002 827.675,0.9599990000000002 C831.899,0.9599990000000002 835.515,1.7600000000000002 838.523,3.36 C841.595,4.96 843.931,7.264 845.531,10.272 C847.195,13.28 848.027,16.864 848.027,21.024 V52.8 C848.027,56.96 847.195,60.576 845.531,63.648 C843.931,66.656 841.595,68.96 838.523,70.56 C835.515,72.16 831.899,72.96 827.675,72.96 zM827.675,65.184 C831.451,65.184 834.331,64.128 836.315,62.016 C838.363,59.84 839.387,56.768 839.387,52.8 V21.12 C839.387,17.152 838.363,14.112 836.315,12 C834.331,9.824 831.451,8.736 827.675,8.736 C823.963,8.736 821.083,9.824 819.035,12 C816.987,14.112 815.963,17.152 815.963,21.12 V52.8 C815.963,56.768 816.987,59.84 819.035,62.016 C821.083,64.128 823.963,65.184 827.675,65.184 zM867.478,72 V1.92 H876.118 V64.128 H907.798 V72 H867.478 zM925.04,72 V1.92 H933.68 V64.128 H965.36 V72 H925.04 zM981.643,72 V64.128 H995.947 V9.792 H981.643 V1.92 H1019.08 V9.792 H1004.78 V64.128 H1019.08 V72 H981.643 zM1037.96,72 V1.92 H1056.1 C1060.65,1.92 1064.55,2.784 1067.81,4.5120000000000005 C1071.14,6.24 1073.7,8.672 1075.49,11.808 C1077.35,14.944 1078.28,18.656 1078.28,22.944 V50.88 C1078.28,55.168 1077.35,58.912 1075.49,62.112 C1073.7,65.248 1071.14,67.68 1067.81,69.408 C1064.55,71.136 1060.65,72 1056.1,72 H1037.96 zM1046.6,64.32 H1056.1 C1060.33,64.32 1063.62,63.136 1065.99,60.768 C1068.42,58.4 1069.64,55.104 1069.64,50.88 V22.944 C1069.64,18.784 1068.42,15.52 1065.99,13.152 C1063.62,10.784 1060.33,9.6 1056.1,9.6 H1046.6 V64.32 zM1096.29,72 V1.92 H1136.61 V9.792 H1104.83 V31.488 H1133.25 V39.264 H1104.83 V64.128 H1136.61 V72 H1096.29 zM1153.08,72 V1.92 H1174.78 C1178.94,1.92 1182.59,2.784 1185.72,4.5120000000000005 C1188.86,6.176 1191.29,8.512 1193.02,11.52 C1194.75,14.528 1195.61,18.048 1195.61,22.08 C1195.61,26.816 1194.36,30.88 1191.87,34.272 C1189.43,37.664 1186.11,40 1181.88,41.28 L1196.57,72 H1186.39 L1172.95,42.24 H1161.72 V72 H1153.08 zM1161.72,34.464 H1174.78 C1178.36,34.464 1181.24,33.344 1183.42,31.104 C1185.59,28.8 1186.68,25.792 1186.68,22.08 C1186.68,18.304 1185.59,15.296 1183.42,13.056 C1181.24,10.816 1178.36,9.696 1174.78,9.696 H1161.72 V34.464 zM1.928,199 V128.92 H10.568 V158.872 H33.032 V128.92 H41.672 V199 H33.032 V166.744 H10.568 V199 H1.928 zM55.3625,199 L73.6025,128.92 H85.2185 L103.363,199 H94.6265 L90.0185,180.376 H68.8025 L64.1945,199 H55.3625 zM70.5305,173.08 H88.1945 L82.8185,151.48 C81.7945,147.384 80.9945,143.96 80.4185,141.208 C79.8425,138.456 79.4905,136.664 79.3625,135.832 C79.2345,136.664 78.8825,138.456 78.3065,141.208 C77.7305,143.96 76.9305,147.352 75.9065,151.384 L70.5305,173.08 zM194.872,199.96 C190.648,199.96 186.968,199.16 183.832,197.56 C180.76,195.96 178.36,193.656 176.632,190.648 C174.968,187.576 174.136,183.96 174.136,179.8 V148.12 C174.136,143.896 174.968,140.28 176.632,137.272 C178.36,134.264 180.76,131.96 183.832,130.36 C186.968,128.76 190.648,127.96 194.872,127.96 C199.096,127.96 202.744,128.792 205.816,130.456 C208.888,132.056 211.256,134.36 212.92,137.368 C214.584,140.376 215.416,143.96 215.416,148.12 H206.776 C206.776,144.152 205.72,141.112 203.608,139 C201.56,136.824 198.648,135.736 194.872,135.736 C191.096,135.736 188.12,136.792 185.944,138.904 C183.832,141.016 182.776,144.056 182.776,148.024 V179.8 C182.776,183.768 183.832,186.84 185.944,189.016 C188.12,191.128 191.096,192.184 194.872,192.184 C198.648,192.184 201.56,191.128 203.608,189.016 C205.72,186.84 206.776,183.768 206.776,179.8 H215.416 C215.416,183.896 214.584,187.48 212.92,190.552 C211.256,193.56 208.888,195.896 205.816,197.56 C202.744,199.16 199.096,199.96 194.872,199.96 zM228.05,199 L246.29,128.92 H257.906 L276.05,199 H267.314 L262.706,180.376 H241.49 L236.882,199 H228.05 zM243.218,173.08 H260.882 L255.506,151.48 C254.482,147.384 253.682,143.96 253.106,141.208 C252.53,138.456 252.178,136.664 252.05,135.832 C251.922,136.664 251.57,138.456 250.994,141.208 C250.418,143.96 249.618,147.352 248.594,151.384 L243.218,173.08 zM289.741,199 V128.92 H309.613 C316.013,128.92 321.005,130.52 324.589,133.72 C328.237,136.92 330.061,141.368 330.061,147.064 C330.061,150.264 329.389,153.048 328.045,155.416 C326.701,157.784 324.781,159.608 322.285,160.888 C319.853,162.168 316.909,162.776 313.453,162.712 V161.272 C317.165,161.208 320.365,161.912 323.053,163.384 C325.805,164.856 327.917,166.968 329.389,169.72 C330.925,172.472 331.693,175.736 331.693,179.512 C331.693,183.48 330.861,186.936 329.197,189.88 C327.533,192.824 325.165,195.096 322.093,196.696 C319.021,198.232 315.341,199 311.053,199 H289.741 zM298.189,191.224 H310.093 C314.125,191.224 317.293,190.168 319.597,188.056 C321.965,185.88 323.149,182.936 323.149,179.224 C323.149,175.384 321.965,172.28 319.597,169.912 C317.293,167.48 314.125,166.264 310.093,166.264 H298.189 V191.224 zM298.189,158.776 H309.517 C313.229,158.776 316.141,157.784 318.253,155.8 C320.429,153.816 321.517,151.128 321.517,147.736 C321.517,144.344 320.461,141.656 318.349,139.672 C316.237,137.688 313.325,136.696 309.613,136.696 H298.189 V158.776 zM347.975,199 V128.92 H388.295 V136.792 H356.519 V158.488 H384.935 V166.264 H356.519 V191.128 H388.295 V199 H347.975 zM397.858,199.48 V191.416 H399.586 C402.402,191.416 404.418,190.168 405.634,187.672 C406.914,185.112 407.586,180.76 407.65,174.616 L408.418,128.92 H444.514 V199 H435.874 V136.792 H416.962 L416.29,174.616 C416.162,183.192 414.786,189.496 412.162,193.528 C409.602,197.496 405.57,199.48 400.066,199.48 H397.858 zM482.3,199.96 C478.076,199.96 474.428,199.16 471.356,197.56 C468.348,195.96 466.012,193.656 464.348,190.648 C462.748,187.576 461.948,183.96 461.948,179.8 V148.12 C461.948,143.896 462.748,140.28 464.348,137.272 C466.012,134.264 468.348,131.96 471.356,130.36 C474.428,128.76 478.076,127.96 482.3,127.96 C486.524,127.96 490.14,128.76 493.148,130.36 C496.22,131.96 498.556,134.264 500.156,137.272 C501.82,140.28 502.652,143.864 502.652,148.024 V179.8 C502.652,183.96 501.82,187.576 500.156,190.648 C498.556,193.656 496.22,195.96 493.148,197.56 C490.14,199.16 486.524,199.96 482.3,199.96 zM482.3,192.184 C486.076,192.184 488.956,191.128 490.94,189.016 C492.988,186.84 494.012,183.768 494.012,179.8 V148.12 C494.012,144.152 492.988,141.112 490.94,139 C488.956,136.824 486.076,135.736 482.3,135.736 C478.588,135.736 475.708,136.824 473.66,139 C471.612,141.112 470.588,144.152 470.588,148.12 V179.8 C470.588,183.768 471.612,186.84 473.66,189.016 C475.708,191.128 478.588,192.184 482.3,192.184 zM519.991,199 V128.92 H539.863 C546.263,128.92 551.255,130.52 554.839,133.72 C558.487,136.92 560.311,141.368 560.311,147.064 C560.311,150.264 559.639,153.048 558.295,155.416 C556.951,157.784 555.031,159.608 552.535,160.888 C550.103,162.168 547.159,162.776 543.703,162.712 V161.272 C547.415,161.208 550.615,161.912 553.303,163.384 C556.055,164.856 558.167,166.968 559.639,169.72 C561.175,172.472 561.943,175.736 561.943,179.512 C561.943,183.48 561.111,186.936 559.447,189.88 C557.783,192.824 555.415,195.096 552.343,196.696 C549.271,198.232 545.591,199 541.303,199 H519.991 zM528.439,191.224 H540.343 C544.375,191.224 547.543,190.168 549.847,188.056 C552.215,185.88 553.399,182.936 553.399,179.224 C553.399,175.384 552.215,172.28 549.847,169.912 C547.543,167.48 544.375,166.264 540.343,166.264 H528.439 V191.224 zM528.439,158.776 H539.767 C543.479,158.776 546.391,157.784 548.503,155.8 C550.679,153.816 551.767,151.128 551.767,147.736 C551.767,144.344 550.711,141.656 548.599,139.672 C546.487,137.688 543.575,136.696 539.863,136.696 H528.439 V158.776 zM597.809,199.96 C593.585,199.96 589.905,199.16 586.769,197.56 C583.697,195.96 581.297,193.656 579.569,190.648 C577.905,187.576 577.073,183.96 577.073,179.8 V148.12 C577.073,143.896 577.905,140.28 579.569,137.272 C581.297,134.264 583.697,131.96 586.769,130.36 C589.905,128.76 593.585,127.96 597.809,127.96 C602.033,127.96 605.681,128.792 608.753,130.456 C611.825,132.056 614.193,134.36 615.857,137.368 C617.521,140.376 618.353,143.96 618.353,148.12 H609.713 C609.713,144.152 608.657,141.112 606.545,139 C604.497,136.824 601.585,135.736 597.809,135.736 C594.033,135.736 591.057,136.792 588.881,138.904 C586.769,141.016 585.713,144.056 585.713,148.024 V179.8 C585.713,183.768 586.769,186.84 588.881,189.016 C591.057,191.128 594.033,192.184 597.809,192.184 C601.585,192.184 604.497,191.128 606.545,189.016 C608.657,186.84 609.713,183.768 609.713,179.8 H618.353 C618.353,183.896 617.521,187.48 615.857,190.552 C614.193,193.56 611.825,195.896 608.753,197.56 C605.681,199.16 602.033,199.96 597.809,199.96 zM635.02,199 V128.92 H643.66 V158.968 H654.028 L669.58,128.92 H678.988 L661.612,162.616 L679.948,199 H670.06 L653.74,166.552 H643.66 V199 H635.02 zM712.55,199.96 C708.326,199.96 704.678,199.16 701.606,197.56 C698.598,195.96 696.262,193.656 694.598,190.648 C692.998,187.576 692.198,183.96 692.198,179.8 V148.12 C692.198,143.896 692.998,140.28 694.598,137.272 C696.262,134.264 698.598,131.96 701.606,130.36 C704.678,128.76 708.326,127.96 712.55,127.96 C716.774,127.96 720.39,128.76 723.398,130.36 C726.47,131.96 728.806,134.264 730.406,137.272 C732.07,140.28 732.902,143.864 732.902,148.024 V179.8 C732.902,183.96 732.07,187.576 730.406,190.648 C728.806,193.656 726.47,195.96 723.398,197.56 C720.39,199.16 716.774,199.96 712.55,199.96 zM712.55,192.184 C716.326,192.184 719.206,191.128 721.19,189.016 C723.238,186.84 724.262,183.768 724.262,179.8 V148.12 C724.262,144.152 723.238,141.112 721.19,139 C719.206,136.824 716.326,135.736 712.55,135.736 C708.838,135.736 705.958,136.824 703.91,139 C701.862,141.112 700.838,144.152 700.838,148.12 V179.8 C700.838,183.768 701.862,186.84 703.91,189.016 C705.958,191.128 708.838,192.184 712.55,192.184 zM749.953,199 V128.92 H758.305 V168.28 C758.305,170.584 758.241,173.048 758.113,175.672 C758.049,178.232 757.953,180.696 757.825,183.064 C757.697,185.368 757.569,187.32 757.441,188.92 L778.753,128.92 H790.273 V199 H781.921 V159.64 C781.921,157.272 781.953,154.808 782.017,152.248 C782.145,149.624 782.273,147.16 782.401,144.856 C782.593,142.488 782.753,140.536 782.881,139 L761.473,199 H749.953 zM770.113,121.72 C765.505,121.72 761.793,120.44 758.977,117.88 C756.161,115.32 754.753,111.96 754.753,107.8 H761.569 C761.569,110.296 762.337,112.312 763.873,113.848 C765.409,115.384 767.457,116.152 770.017,116.152 C772.641,116.152 774.721,115.384 776.257,113.848 C777.857,112.312 778.657,110.296 778.657,107.8 H785.473 C785.473,111.96 784.065,115.32 781.249,117.88 C778.433,120.44 774.721,121.72 770.113,121.72 zM814.715,214.36 L822.395,184.504 H834.875 L822.395,214.36 H814.715 zM1.6400000000000001,326 V255.92 H9.992 V295.28 C9.992,297.584 9.928,300.048 9.8,302.672 C9.736,305.232 9.64,307.696 9.512,310.064 C9.384,312.368 9.256,314.32 9.128,315.92 L30.44,255.92 H41.96 V326 H33.608 V286.64 C33.608,284.272 33.64,281.808 33.704,279.248 C33.832,276.624 33.96,274.16 34.088,271.856 C34.28,269.488 34.44,267.536 34.568,266 L13.16,326 H1.6400000000000001 zM115.421,326 V255.92 H126.749 L134.045,278.576 C134.749,280.624 135.389,282.672 135.965,284.72 C136.541,286.704 136.957,288.24 137.213,289.328 C137.533,288.24 137.949,286.704 138.461,284.72 C138.973,282.672 139.549,280.592 140.189,278.48 L147.101,255.92 H158.429 V326 H149.981 V300.56 C149.981,297.744 150.077,294.544 150.269,290.96 C150.461,287.376 150.717,283.728 151.037,280.016 C151.357,276.24 151.677,272.656 151.997,269.264 C152.381,265.808 152.701,262.8 152.957,260.24 L141.629,295.28 H132.509 L121.085,260.24 C121.405,262.736 121.725,265.648 122.045,268.976 C122.365,272.24 122.653,275.728 122.909,279.44 C123.165,283.088 123.389,286.736 123.581,290.384 C123.773,294.032 123.869,297.424 123.869,300.56 V326 H115.421 zM171.928,326 V255.92 H179.992 V284.72 H183.928 C189.752,284.72 194.328,286.352 197.656,289.616 C201.048,292.88 202.744,297.328 202.744,302.96 V307.856 C202.744,313.488 201.08,317.936 197.752,321.2 C194.424,324.4 189.816,326 183.928,326 H171.928 zM179.992,318.416 H183.928 C187.32,318.416 189.912,317.488 191.704,315.632 C193.56,313.712 194.488,311.088 194.488,307.76 V302.96 C194.488,299.568 193.56,296.944 191.704,295.088 C189.912,293.232 187.32,292.304 183.928,292.304 H179.992 V318.416 zM208.984,326 V255.92 H217.048 V326 H208.984 zM289.837,326 V255.92 H328.812 V263.792 H298.477 V284.912 H310.093 C314.573,284.912 318.413,285.776 321.613,287.504 C324.813,289.168 327.277,291.536 329.005,294.608 C330.797,297.68 331.693,301.296 331.693,305.456 C331.693,309.616 330.797,313.232 329.005,316.304 C327.277,319.376 324.813,321.776 321.613,323.504 C318.413,325.168 314.573,326 310.093,326 H289.837 zM298.477,318.128 H310.093 C314.061,318.128 317.165,317.008 319.405,314.768 C321.645,312.464 322.765,309.36 322.765,305.456 C322.765,301.488 321.645,298.384 319.405,296.144 C317.165,293.904 314.061,292.784 310.093,292.784 H298.477 V318.128 zM367.175,326.96 C362.951,326.96 359.303,326.16 356.231,324.56 C353.223,322.96 350.887,320.656 349.223,317.648 C347.623,314.576 346.823,310.96 346.823,306.8 V275.12 C346.823,270.896 347.623,267.28 349.223,264.272 C350.887,261.264 353.223,258.96 356.231,257.36 C359.303,255.76 362.951,254.96 367.175,254.96 C371.399,254.96 375.015,255.76 378.023,257.36 C381.095,258.96 383.431,261.264 385.031,264.272 C386.695,267.28 387.527,270.864 387.527,275.024 V306.8 C387.527,310.96 386.695,314.576 385.031,317.648 C383.431,320.656 381.095,322.96 378.023,324.56 C375.015,326.16 371.399,326.96 367.175,326.96 zM367.175,319.184 C370.951,319.184 373.831,318.128 375.815,316.016 C377.863,313.84 378.887,310.768 378.887,306.8 V275.12 C378.887,271.152 377.863,268.112 375.815,266 C373.831,263.824 370.951,262.736 367.175,262.736 C363.463,262.736 360.583,263.824 358.535,266 C356.487,268.112 355.463,271.152 355.463,275.12 V306.8 C355.463,310.768 356.487,313.84 358.535,316.016 C360.583,318.128 363.463,319.184 367.175,319.184 zM397.858,326.48 V318.416 H399.586 C402.402,318.416 404.418,317.168 405.634,314.672 C406.914,312.112 407.586,307.76 407.65,301.616 L408.418,255.92 H444.514 V326 H435.874 V263.792 H416.962 L416.29,301.616 C416.162,310.192 414.786,316.496 412.162,320.528 C409.602,324.496 405.57,326.48 400.066,326.48 H397.858 zM462.524,326 V255.92 H471.164 V284.72 H485.18 C489.404,284.72 493.084,285.584 496.22,287.312 C499.42,289.04 501.884,291.44 503.612,294.512 C505.404,297.584 506.3,301.2 506.3,305.36 C506.3,309.456 505.404,313.072 503.612,316.208 C501.884,319.28 499.42,321.68 496.22,323.408 C493.084,325.136 489.404,326 485.18,326 H462.524 zM471.164,318.128 H484.7 C488.476,318.128 491.516,316.976 493.82,314.672 C496.188,312.304 497.372,309.2 497.372,305.36 C497.372,301.52 496.188,298.448 493.82,296.144 C491.516,293.776 488.476,292.592 484.7,292.592 H471.164 V318.128 zM517.398,326 L517.207,255.92 H525.271 V319.472 H536.503 V255.92 H543.415 V319.472 H554.551 V255.92 H562.519 V326 H517.398 zM578.225,326 V255.92 H618.545 V263.792 H586.769 V285.488 H615.185 V293.264 H586.769 V318.128 H618.545 V326 H578.225 zM642.028,341.36 L649.708,311.504 H662.188 L649.708,341.36 H642.028 zM32.84,453 V426.024 C32.008,426.216 30.44,426.44 28.136,426.696 C25.896,426.888 23.144,426.984 19.88,426.984 C13.864,426.984 9.064,425.16 5.48,421.512 C1.96,417.864 0.2,412.968 0.2,406.824 V382.92 H8.84 V406.824 C8.84,410.6 9.96,413.64 12.2,415.944 C14.504,418.184 17.544,419.304 21.32,419.304 C24.392,419.304 26.92,419.208 28.904,419.016 C30.888,418.76 32.2,418.536 32.84,418.344 V382.92 H41.48 V453 H32.84 zM60.1625,453 V382.92 H100.483 V390.792 H68.7065 V412.488 H97.1225 V420.264 H68.7065 V445.128 H100.483 V453 H60.1625 zM115.421,453 V382.92 H126.749 L134.045,405.576 C134.749,407.624 135.389,409.672 135.965,411.72 C136.541,413.704 136.957,415.24 137.213,416.328 C137.533,415.24 137.949,413.704 138.461,411.72 C138.973,409.672 139.549,407.592 140.189,405.48 L147.101,382.92 H158.429 V453 H149.981 V427.56 C149.981,424.744 150.077,421.544 150.269,417.96 C150.461,414.376 150.717,410.728 151.037,407.016 C151.357,403.24 151.677,399.656 151.997,396.264 C152.381,392.808 152.701,389.8 152.957,387.24 L141.629,422.28 H132.509 L121.085,387.24 C121.405,389.736 121.725,392.648 122.045,395.976 C122.365,399.24 122.653,402.728 122.909,406.44 C123.165,410.088 123.389,413.736 123.581,417.384 C123.773,421.032 123.869,424.424 123.869,427.56 V453 H115.421 z" fill="white" id="svg_1" class=""/></g></svg>