<svg width="239" height="37" viewBox="0 0 239 37" fill="none" xmlns="http://www.w3.org/2000/svg">
<path fill-rule="evenodd" clip-rule="evenodd" d="M19.1031 0.249303C14.5226 0.812799 9.68217 2.70291 6.40388 5.20823C2.00002 8.57366 -0.3615 13.9219 0.045081 19.6099C0.624331 27.7162 6.19021 33.4489 16.0005 36.0429C17.5764 36.4599 18.7589 36.9995 23.8246 37C29.276 37.0005 30.2638 36.4818 32.3231 35.9374C37.2218 34.6421 41.6712 31.8482 44.5046 28.288C45.6982 26.7885 45.787 26.3349 44.936 26.0868C44.602 25.9895 41.9016 25.0667 38.9347 24.0359C33.9794 22.3146 33.5183 22.2005 33.269 22.6329C32.5942 23.8039 31.1263 25.1428 29.6975 25.8906C25.0769 28.3094 18.8425 27.5342 15.3972 24.1125C13.6128 22.3403 13.0417 20.9398 13.0368 18.3232C13.0333 16.4484 13.132 16.0015 13.8254 14.7585C14.8477 12.9262 16.3 11.6393 18.5304 10.5897C20.2482 9.78131 20.4527 9.74889 23.8246 9.74889C27.0365 9.74889 27.4568 9.8073 28.8158 10.4429C30.5495 11.254 31.8518 12.2906 32.8422 13.6486L33.5509 14.6202L39.6772 12.486L45.8034 10.3515L45.3359 9.55382C44.4469 8.03589 41.733 5.34702 39.8067 4.07534C37.6332 2.64021 33.9942 1.18793 31.1322 0.613177C28.7294 0.130602 21.7771 -0.0797379 19.1031 0.249303ZM63.4418 0.365057C54.9786 1.89049 49.0507 7.1471 47.4206 14.572C46.9956 16.5076 47.072 20.9936 47.5617 22.8784C49.1713 29.0733 53.9742 33.7603 60.9214 35.9159C62.7433 36.4813 63.4421 36.5429 67.9361 36.5349C72.7989 36.5263 72.9918 36.5046 75.431 35.6898C84.4524 32.6764 89.5475 25.0273 88.4384 16.1622C87.5391 8.97559 82.6896 3.44566 75.2205 1.09039C71.6468 -0.0365982 67.1925 -0.31071 63.4418 0.365057ZM91.9478 18.3232V36.1418H100.042H108.136V31.4527V26.7636H104.224H100.311V13.6341V0.504658H96.1297H91.9478V18.3232ZM111.643 18.3232V36.1418H115.825H120.007V31.4527V26.7636H117.848H115.69V13.6341V0.504658H113.666H111.643V18.3232ZM123.514 18.3232V36.1418H125.537H127.561V18.3232V0.504658H125.537H123.514V18.3232ZM131.878 18.3232V36.1418H138.729C144.829 36.1418 145.773 36.0829 147.335 35.6035C151.919 34.1973 155.239 30.4367 156.762 24.9266C157.547 22.086 157.607 14.9557 156.869 12.1604C155.291 6.17954 151.507 2.10779 146.421 0.917299C145.137 0.61666 143.045 0.511625 138.285 0.508677L131.878 0.504658V18.3232ZM161.825 18.3232V36.1418H175.989H190.153V31.7207V27.2995H181.655H173.156V25.022V22.7444H181.526H189.896L189.823 18.2563L189.749 13.7681L181.452 13.6974L173.156 13.6264V11.6208V9.61491H181.655H190.153V5.05978V0.504658H175.989H161.825V18.3232ZM195.819 18.3058V36.1418H202.429H209.039V30.5082V24.8743L213.249 24.9483L217.458 25.022L220.466 30.5779L223.473 36.134L231.237 36.1378L239 36.1418L238.596 35.405C238.374 34.9998 236.569 32.1963 234.585 29.1752L230.977 23.6822L232.65 22.7966C234.955 21.5772 237.005 19.5113 238.02 17.3854C238.794 15.7643 238.851 15.4398 238.845 12.6963C238.84 9.99486 238.774 9.61464 238.054 8.14119C236.526 5.01316 233.295 2.56304 229.002 1.27662C227.023 0.683648 226.654 0.66891 211.4 0.570305L195.819 0.469557V18.3058ZM71.9868 10.3815C73.6204 11.217 75.1175 12.6853 75.9857 14.304C76.6329 15.5103 76.7044 15.924 76.7044 18.4572C76.7044 20.8773 76.6178 21.4314 76.0858 22.4215C75.132 24.1953 73.7035 25.6026 72.0264 26.4206C70.6656 27.0844 70.2053 27.1655 67.8012 27.1655C65.3501 27.1655 64.96 27.0935 63.5363 26.377C61.7289 25.4676 60.2982 24.0107 59.4748 22.2412C58.6268 20.4191 58.6492 16.4497 59.5185 14.572C60.531 12.3844 62.5475 10.6374 64.9683 9.85071C65.3393 9.73013 66.7978 9.661 68.2096 9.69717C70.2749 9.74996 71.0128 9.88366 71.9868 10.3815ZM223.203 10.1141C224.54 10.7178 224.941 11.1856 225.133 12.363C225.259 13.1312 225.142 13.4436 224.423 14.256C223.932 14.812 223.14 15.3458 222.574 15.5017C222.03 15.6518 218.762 15.7753 215.312 15.7761L209.039 15.7777V12.6963V9.61491L215.581 9.62081C221.324 9.6259 222.256 9.68618 223.203 10.1141ZM146.166 10.6875C150.024 12.8332 150.775 21.0378 147.456 24.7918C145.994 26.4458 145.006 26.7636 141.331 26.7636H138.083V18.2964V9.829L141.523 9.92385C144.589 10.0085 145.093 10.0913 146.166 10.6875Z" fill="#FF0000"/>
</svg>
