<svg width="1197" height="454" viewBox="0 0 1197 454" fill="none" xmlns="http://www.w3.org/2000/svg">
<path d="M2.024 72V1.92H41.576V72H32.936V9.792H10.664V72H2.024ZM59.3945 72V1.92H81.9545C86.3065 1.92 90.0825 2.784 93.2825 4.512C96.4825 6.176 98.9465 8.544 100.675 11.616C102.467 14.688 103.363 18.336 103.363 22.56C103.363 26.72 102.467 30.368 100.675 33.504C98.9465 36.576 96.4825 38.976 93.2825 40.704C90.0825 42.368 86.3065 43.2 81.9545 43.2H68.0345V72H59.3945ZM68.0345 35.424H81.9545C85.7305 35.424 88.7385 34.272 90.9785 31.968C93.2825 29.6 94.4345 26.464 94.4345 22.56C94.4345 18.592 93.2825 15.456 90.9785 13.152C88.7385 10.848 85.7305 9.696 81.9545 9.696H68.0345V35.424ZM116.765 72V1.92H125.117V41.28C125.117 43.584 125.053 46.048 124.925 48.672C124.861 51.232 124.765 53.696 124.637 56.064C124.509 58.368 124.381 60.32 124.253 61.92L145.565 1.92H157.085V72H148.733V32.64C148.733 30.272 148.765 27.808 148.829 25.248C148.957 22.624 149.085 20.16 149.213 17.856C149.405 15.488 149.565 13.536 149.693 12L128.285 72H116.765ZM174.616 72V1.92H194.488C200.888 1.92 205.88 3.52 209.464 6.72C213.112 9.92 214.936 14.368 214.936 20.064C214.936 23.264 214.264 26.048 212.92 28.416C211.576 30.784 209.656 32.608 207.16 33.888C204.728 35.168 201.784 35.776 198.328 35.712V34.272C202.04 34.208 205.24 34.912 207.928 36.384C210.68 37.856 212.792 39.968 214.264 42.72C215.8 45.472 216.568 48.736 216.568 52.512C216.568 56.48 215.736 59.936 214.072 62.88C212.408 65.824 210.04 68.096 206.968 69.696C203.896 71.232 200.216 72 195.928 72H174.616ZM183.064 64.224H194.968C199 64.224 202.168 63.168 204.472 61.056C206.84 58.88 208.024 55.936 208.024 52.224C208.024 48.384 206.84 45.28 204.472 42.912C202.168 40.48 199 39.264 194.968 39.264H183.064V64.224ZM183.064 31.776H194.392C198.104 31.776 201.016 30.784 203.128 28.8C205.304 26.816 206.392 24.128 206.392 20.736C206.392 17.344 205.336 14.656 203.224 12.672C201.112 10.688 198.2 9.696 194.488 9.696H183.064V31.776ZM232.85 72V1.92H273.17V9.792H241.394V31.488H269.81V39.264H241.394V64.128H273.17V72H232.85ZM305.293 72V9.696H286.093V1.824H333.133V9.696H313.933V72H305.293ZM354.215 87.36L361.895 57.504H374.375L361.895 87.36H354.215ZM460.796 72V1.92H472.124L479.42 24.576C480.124 26.624 480.764 28.672 481.34 30.72C481.916 32.704 482.332 34.24 482.588 35.328C482.908 34.24 483.324 32.704 483.836 30.72C484.348 28.672 484.924 26.592 485.564 24.48L492.476 1.92H503.804V72H495.356V46.56C495.356 43.744 495.452 40.544 495.644 36.96C495.836 33.376 496.092 29.728 496.412 26.016C496.732 22.24 497.052 18.656 497.372 15.264C497.756 11.808 498.076 8.8 498.332 6.23999L487.004 41.28H477.884L466.46 6.23999C466.78 8.736 467.1 11.648 467.42 14.976C467.74 18.24 468.028 21.728 468.284 25.44C468.54 29.088 468.764 32.736 468.956 36.384C469.148 40.032 469.244 43.424 469.244 46.56V72H460.796ZM517.303 72V1.92H525.367V30.72H529.303C535.127 30.72 539.703 32.352 543.031 35.616C546.423 38.88 548.119 43.328 548.119 48.96V53.856C548.119 59.488 546.455 63.936 543.127 67.2C539.799 70.4 535.191 72 529.303 72H517.303ZM525.367 64.416H529.303C532.695 64.416 535.287 63.488 537.079 61.632C538.935 59.712 539.863 57.088 539.863 53.76V48.96C539.863 45.568 538.935 42.944 537.079 41.088C535.287 39.232 532.695 38.304 529.303 38.304H525.367V64.416ZM554.359 72V1.92H562.423V72H554.359ZM639.628 44.16V36.48H670.348V44.16H639.628ZM770.497 72.96C766.273 72.96 762.593 72.16 759.457 70.56C756.385 68.96 753.985 66.656 752.257 63.648C750.593 60.576 749.761 56.96 749.761 52.8V21.12C749.761 16.896 750.593 13.28 752.257 10.272C753.985 7.264 756.385 4.96 759.457 3.36C762.593 1.76 766.273 0.959999 770.497 0.959999C774.721 0.959999 778.369 1.792 781.441 3.456C784.513 5.056 786.881 7.36 788.545 10.368C790.209 13.376 791.041 16.96 791.041 21.12H782.401C782.401 17.152 781.345 14.112 779.233 12C777.185 9.824 774.273 8.736 770.497 8.736C766.721 8.736 763.745 9.792 761.569 11.904C759.457 14.016 758.401 17.056 758.401 21.024V52.8C758.401 56.768 759.457 59.84 761.569 62.016C763.745 64.128 766.721 65.184 770.497 65.184C774.273 65.184 777.185 64.128 779.233 62.016C781.345 59.84 782.401 56.768 782.401 52.8H791.041C791.041 56.896 790.209 60.48 788.545 63.552C786.881 66.56 784.513 68.896 781.441 70.56C778.369 72.16 774.721 72.96 770.497 72.96ZM827.675 72.96C823.451 72.96 819.803 72.16 816.731 70.56C813.723 68.96 811.387 66.656 809.723 63.648C808.123 60.576 807.323 56.96 807.323 52.8V21.12C807.323 16.896 808.123 13.28 809.723 10.272C811.387 7.264 813.723 4.96 816.731 3.36C819.803 1.76 823.451 0.959999 827.675 0.959999C831.899 0.959999 835.515 1.76 838.523 3.36C841.595 4.96 843.931 7.264 845.531 10.272C847.195 13.28 848.027 16.864 848.027 21.024V52.8C848.027 56.96 847.195 60.576 845.531 63.648C843.931 66.656 841.595 68.96 838.523 70.56C835.515 72.16 831.899 72.96 827.675 72.96ZM827.675 65.184C831.451 65.184 834.331 64.128 836.315 62.016C838.363 59.84 839.387 56.768 839.387 52.8V21.12C839.387 17.152 838.363 14.112 836.315 12C834.331 9.824 831.451 8.736 827.675 8.736C823.963 8.736 821.083 9.824 819.035 12C816.987 14.112 815.963 17.152 815.963 21.12V52.8C815.963 56.768 816.987 59.84 819.035 62.016C821.083 64.128 823.963 65.184 827.675 65.184ZM867.478 72V1.92H876.118V64.128H907.798V72H867.478ZM925.04 72V1.92H933.68V64.128H965.36V72H925.04ZM981.643 72V64.128H995.947V9.792H981.643V1.92H1019.08V9.792H1004.78V64.128H1019.08V72H981.643ZM1037.96 72V1.92H1056.1C1060.65 1.92 1064.55 2.784 1067.81 4.512C1071.14 6.24 1073.7 8.672 1075.49 11.808C1077.35 14.944 1078.28 18.656 1078.28 22.944V50.88C1078.28 55.168 1077.35 58.912 1075.49 62.112C1073.7 65.248 1071.14 67.68 1067.81 69.408C1064.55 71.136 1060.65 72 1056.1 72H1037.96ZM1046.6 64.32H1056.1C1060.33 64.32 1063.62 63.136 1065.99 60.768C1068.42 58.4 1069.64 55.104 1069.64 50.88V22.944C1069.64 18.784 1068.42 15.52 1065.99 13.152C1063.62 10.784 1060.33 9.6 1056.1 9.6H1046.6V64.32ZM1096.29 72V1.92H1136.61V9.792H1104.83V31.488H1133.25V39.264H1104.83V64.128H1136.61V72H1096.29ZM1153.08 72V1.92H1174.78C1178.94 1.92 1182.59 2.784 1185.72 4.512C1188.86 6.176 1191.29 8.512 1193.02 11.52C1194.75 14.528 1195.61 18.048 1195.61 22.08C1195.61 26.816 1194.36 30.88 1191.87 34.272C1189.43 37.664 1186.11 40 1181.88 41.28L1196.57 72H1186.39L1172.95 42.24H1161.72V72H1153.08ZM1161.72 34.464H1174.78C1178.36 34.464 1181.24 33.344 1183.42 31.104C1185.59 28.8 1186.68 25.792 1186.68 22.08C1186.68 18.304 1185.59 15.296 1183.42 13.056C1181.24 10.816 1178.36 9.696 1174.78 9.696H1161.72V34.464ZM1.928 199V128.92H10.568V158.872H33.032V128.92H41.672V199H33.032V166.744H10.568V199H1.928ZM55.3625 199L73.6025 128.92H85.2185L103.363 199H94.6265L90.0185 180.376H68.8025L64.1945 199H55.3625ZM70.5305 173.08H88.1945L82.8185 151.48C81.7945 147.384 80.9945 143.96 80.4185 141.208C79.8425 138.456 79.4905 136.664 79.3625 135.832C79.2345 136.664 78.8825 138.456 78.3065 141.208C77.7305 143.96 76.9305 147.352 75.9065 151.384L70.5305 173.08ZM194.872 199.96C190.648 199.96 186.968 199.16 183.832 197.56C180.76 195.96 178.36 193.656 176.632 190.648C174.968 187.576 174.136 183.96 174.136 179.8V148.12C174.136 143.896 174.968 140.28 176.632 137.272C178.36 134.264 180.76 131.96 183.832 130.36C186.968 128.76 190.648 127.96 194.872 127.96C199.096 127.96 202.744 128.792 205.816 130.456C208.888 132.056 211.256 134.36 212.92 137.368C214.584 140.376 215.416 143.96 215.416 148.12H206.776C206.776 144.152 205.72 141.112 203.608 139C201.56 136.824 198.648 135.736 194.872 135.736C191.096 135.736 188.12 136.792 185.944 138.904C183.832 141.016 182.776 144.056 182.776 148.024V179.8C182.776 183.768 183.832 186.84 185.944 189.016C188.12 191.128 191.096 192.184 194.872 192.184C198.648 192.184 201.56 191.128 203.608 189.016C205.72 186.84 206.776 183.768 206.776 179.8H215.416C215.416 183.896 214.584 187.48 212.92 190.552C211.256 193.56 208.888 195.896 205.816 197.56C202.744 199.16 199.096 199.96 194.872 199.96ZM228.05 199L246.29 128.92H257.906L276.05 199H267.314L262.706 180.376H241.49L236.882 199H228.05ZM243.218 173.08H260.882L255.506 151.48C254.482 147.384 253.682 143.96 253.106 141.208C252.53 138.456 252.178 136.664 252.05 135.832C251.922 136.664 251.57 138.456 250.994 141.208C250.418 143.96 249.618 147.352 248.594 151.384L243.218 173.08ZM289.741 199V128.92H309.613C316.013 128.92 321.005 130.52 324.589 133.72C328.237 136.92 330.061 141.368 330.061 147.064C330.061 150.264 329.389 153.048 328.045 155.416C326.701 157.784 324.781 159.608 322.285 160.888C319.853 162.168 316.909 162.776 313.453 162.712V161.272C317.165 161.208 320.365 161.912 323.053 163.384C325.805 164.856 327.917 166.968 329.389 169.72C330.925 172.472 331.693 175.736 331.693 179.512C331.693 183.48 330.861 186.936 329.197 189.88C327.533 192.824 325.165 195.096 322.093 196.696C319.021 198.232 315.341 199 311.053 199H289.741ZM298.189 191.224H310.093C314.125 191.224 317.293 190.168 319.597 188.056C321.965 185.88 323.149 182.936 323.149 179.224C323.149 175.384 321.965 172.28 319.597 169.912C317.293 167.48 314.125 166.264 310.093 166.264H298.189V191.224ZM298.189 158.776H309.517C313.229 158.776 316.141 157.784 318.253 155.8C320.429 153.816 321.517 151.128 321.517 147.736C321.517 144.344 320.461 141.656 318.349 139.672C316.237 137.688 313.325 136.696 309.613 136.696H298.189V158.776ZM347.975 199V128.92H388.295V136.792H356.519V158.488H384.935V166.264H356.519V191.128H388.295V199H347.975ZM397.858 199.48V191.416H399.586C402.402 191.416 404.418 190.168 405.634 187.672C406.914 185.112 407.586 180.76 407.65 174.616L408.418 128.92H444.514V199H435.874V136.792H416.962L416.29 174.616C416.162 183.192 414.786 189.496 412.162 193.528C409.602 197.496 405.57 199.48 400.066 199.48H397.858ZM482.3 199.96C478.076 199.96 474.428 199.16 471.356 197.56C468.348 195.96 466.012 193.656 464.348 190.648C462.748 187.576 461.948 183.96 461.948 179.8V148.12C461.948 143.896 462.748 140.28 464.348 137.272C466.012 134.264 468.348 131.96 471.356 130.36C474.428 128.76 478.076 127.96 482.3 127.96C486.524 127.96 490.14 128.76 493.148 130.36C496.22 131.96 498.556 134.264 500.156 137.272C501.82 140.28 502.652 143.864 502.652 148.024V179.8C502.652 183.96 501.82 187.576 500.156 190.648C498.556 193.656 496.22 195.96 493.148 197.56C490.14 199.16 486.524 199.96 482.3 199.96ZM482.3 192.184C486.076 192.184 488.956 191.128 490.94 189.016C492.988 186.84 494.012 183.768 494.012 179.8V148.12C494.012 144.152 492.988 141.112 490.94 139C488.956 136.824 486.076 135.736 482.3 135.736C478.588 135.736 475.708 136.824 473.66 139C471.612 141.112 470.588 144.152 470.588 148.12V179.8C470.588 183.768 471.612 186.84 473.66 189.016C475.708 191.128 478.588 192.184 482.3 192.184ZM519.991 199V128.92H539.863C546.263 128.92 551.255 130.52 554.839 133.72C558.487 136.92 560.311 141.368 560.311 147.064C560.311 150.264 559.639 153.048 558.295 155.416C556.951 157.784 555.031 159.608 552.535 160.888C550.103 162.168 547.159 162.776 543.703 162.712V161.272C547.415 161.208 550.615 161.912 553.303 163.384C556.055 164.856 558.167 166.968 559.639 169.72C561.175 172.472 561.943 175.736 561.943 179.512C561.943 183.48 561.111 186.936 559.447 189.88C557.783 192.824 555.415 195.096 552.343 196.696C549.271 198.232 545.591 199 541.303 199H519.991ZM528.439 191.224H540.343C544.375 191.224 547.543 190.168 549.847 188.056C552.215 185.88 553.399 182.936 553.399 179.224C553.399 175.384 552.215 172.28 549.847 169.912C547.543 167.48 544.375 166.264 540.343 166.264H528.439V191.224ZM528.439 158.776H539.767C543.479 158.776 546.391 157.784 548.503 155.8C550.679 153.816 551.767 151.128 551.767 147.736C551.767 144.344 550.711 141.656 548.599 139.672C546.487 137.688 543.575 136.696 539.863 136.696H528.439V158.776ZM597.809 199.96C593.585 199.96 589.905 199.16 586.769 197.56C583.697 195.96 581.297 193.656 579.569 190.648C577.905 187.576 577.073 183.96 577.073 179.8V148.12C577.073 143.896 577.905 140.28 579.569 137.272C581.297 134.264 583.697 131.96 586.769 130.36C589.905 128.76 593.585 127.96 597.809 127.96C602.033 127.96 605.681 128.792 608.753 130.456C611.825 132.056 614.193 134.36 615.857 137.368C617.521 140.376 618.353 143.96 618.353 148.12H609.713C609.713 144.152 608.657 141.112 606.545 139C604.497 136.824 601.585 135.736 597.809 135.736C594.033 135.736 591.057 136.792 588.881 138.904C586.769 141.016 585.713 144.056 585.713 148.024V179.8C585.713 183.768 586.769 186.84 588.881 189.016C591.057 191.128 594.033 192.184 597.809 192.184C601.585 192.184 604.497 191.128 606.545 189.016C608.657 186.84 609.713 183.768 609.713 179.8H618.353C618.353 183.896 617.521 187.48 615.857 190.552C614.193 193.56 611.825 195.896 608.753 197.56C605.681 199.16 602.033 199.96 597.809 199.96ZM635.02 199V128.92H643.66V158.968H654.028L669.58 128.92H678.988L661.612 162.616L679.948 199H670.06L653.74 166.552H643.66V199H635.02ZM712.55 199.96C708.326 199.96 704.678 199.16 701.606 197.56C698.598 195.96 696.262 193.656 694.598 190.648C692.998 187.576 692.198 183.96 692.198 179.8V148.12C692.198 143.896 692.998 140.28 694.598 137.272C696.262 134.264 698.598 131.96 701.606 130.36C704.678 128.76 708.326 127.96 712.55 127.96C716.774 127.96 720.39 128.76 723.398 130.36C726.47 131.96 728.806 134.264 730.406 137.272C732.07 140.28 732.902 143.864 732.902 148.024V179.8C732.902 183.96 732.07 187.576 730.406 190.648C728.806 193.656 726.47 195.96 723.398 197.56C720.39 199.16 716.774 199.96 712.55 199.96ZM712.55 192.184C716.326 192.184 719.206 191.128 721.19 189.016C723.238 186.84 724.262 183.768 724.262 179.8V148.12C724.262 144.152 723.238 141.112 721.19 139C719.206 136.824 716.326 135.736 712.55 135.736C708.838 135.736 705.958 136.824 703.91 139C701.862 141.112 700.838 144.152 700.838 148.12V179.8C700.838 183.768 701.862 186.84 703.91 189.016C705.958 191.128 708.838 192.184 712.55 192.184ZM749.953 199V128.92H758.305V168.28C758.305 170.584 758.241 173.048 758.113 175.672C758.049 178.232 757.953 180.696 757.825 183.064C757.697 185.368 757.569 187.32 757.441 188.92L778.753 128.92H790.273V199H781.921V159.64C781.921 157.272 781.953 154.808 782.017 152.248C782.145 149.624 782.273 147.16 782.401 144.856C782.593 142.488 782.753 140.536 782.881 139L761.473 199H749.953ZM770.113 121.72C765.505 121.72 761.793 120.44 758.977 117.88C756.161 115.32 754.753 111.96 754.753 107.8H761.569C761.569 110.296 762.337 112.312 763.873 113.848C765.409 115.384 767.457 116.152 770.017 116.152C772.641 116.152 774.721 115.384 776.257 113.848C777.857 112.312 778.657 110.296 778.657 107.8H785.473C785.473 111.96 784.065 115.32 781.249 117.88C778.433 120.44 774.721 121.72 770.113 121.72ZM814.715 214.36L822.395 184.504H834.875L822.395 214.36H814.715ZM1.64 326V255.92H9.992V295.28C9.992 297.584 9.928 300.048 9.8 302.672C9.736 305.232 9.64 307.696 9.512 310.064C9.384 312.368 9.256 314.32 9.128 315.92L30.44 255.92H41.96V326H33.608V286.64C33.608 284.272 33.64 281.808 33.704 279.248C33.832 276.624 33.96 274.16 34.088 271.856C34.28 269.488 34.44 267.536 34.568 266L13.16 326H1.64ZM115.421 326V255.92H126.749L134.045 278.576C134.749 280.624 135.389 282.672 135.965 284.72C136.541 286.704 136.957 288.24 137.213 289.328C137.533 288.24 137.949 286.704 138.461 284.72C138.973 282.672 139.549 280.592 140.189 278.48L147.101 255.92H158.429V326H149.981V300.56C149.981 297.744 150.077 294.544 150.269 290.96C150.461 287.376 150.717 283.728 151.037 280.016C151.357 276.24 151.677 272.656 151.997 269.264C152.381 265.808 152.701 262.8 152.957 260.24L141.629 295.28H132.509L121.085 260.24C121.405 262.736 121.725 265.648 122.045 268.976C122.365 272.24 122.653 275.728 122.909 279.44C123.165 283.088 123.389 286.736 123.581 290.384C123.773 294.032 123.869 297.424 123.869 300.56V326H115.421ZM171.928 326V255.92H179.992V284.72H183.928C189.752 284.72 194.328 286.352 197.656 289.616C201.048 292.88 202.744 297.328 202.744 302.96V307.856C202.744 313.488 201.08 317.936 197.752 321.2C194.424 324.4 189.816 326 183.928 326H171.928ZM179.992 318.416H183.928C187.32 318.416 189.912 317.488 191.704 315.632C193.56 313.712 194.488 311.088 194.488 307.76V302.96C194.488 299.568 193.56 296.944 191.704 295.088C189.912 293.232 187.32 292.304 183.928 292.304H179.992V318.416ZM208.984 326V255.92H217.048V326H208.984ZM289.837 326V255.92H328.812V263.792H298.477V284.912H310.093C314.573 284.912 318.413 285.776 321.613 287.504C324.813 289.168 327.277 291.536 329.005 294.608C330.797 297.68 331.693 301.296 331.693 305.456C331.693 309.616 330.797 313.232 329.005 316.304C327.277 319.376 324.813 321.776 321.613 323.504C318.413 325.168 314.573 326 310.093 326H289.837ZM298.477 318.128H310.093C314.061 318.128 317.165 317.008 319.405 314.768C321.645 312.464 322.765 309.36 322.765 305.456C322.765 301.488 321.645 298.384 319.405 296.144C317.165 293.904 314.061 292.784 310.093 292.784H298.477V318.128ZM367.175 326.96C362.951 326.96 359.303 326.16 356.231 324.56C353.223 322.96 350.887 320.656 349.223 317.648C347.623 314.576 346.823 310.96 346.823 306.8V275.12C346.823 270.896 347.623 267.28 349.223 264.272C350.887 261.264 353.223 258.96 356.231 257.36C359.303 255.76 362.951 254.96 367.175 254.96C371.399 254.96 375.015 255.76 378.023 257.36C381.095 258.96 383.431 261.264 385.031 264.272C386.695 267.28 387.527 270.864 387.527 275.024V306.8C387.527 310.96 386.695 314.576 385.031 317.648C383.431 320.656 381.095 322.96 378.023 324.56C375.015 326.16 371.399 326.96 367.175 326.96ZM367.175 319.184C370.951 319.184 373.831 318.128 375.815 316.016C377.863 313.84 378.887 310.768 378.887 306.8V275.12C378.887 271.152 377.863 268.112 375.815 266C373.831 263.824 370.951 262.736 367.175 262.736C363.463 262.736 360.583 263.824 358.535 266C356.487 268.112 355.463 271.152 355.463 275.12V306.8C355.463 310.768 356.487 313.84 358.535 316.016C360.583 318.128 363.463 319.184 367.175 319.184ZM397.858 326.48V318.416H399.586C402.402 318.416 404.418 317.168 405.634 314.672C406.914 312.112 407.586 307.76 407.65 301.616L408.418 255.92H444.514V326H435.874V263.792H416.962L416.29 301.616C416.162 310.192 414.786 316.496 412.162 320.528C409.602 324.496 405.57 326.48 400.066 326.48H397.858ZM462.524 326V255.92H471.164V284.72H485.18C489.404 284.72 493.084 285.584 496.22 287.312C499.42 289.04 501.884 291.44 503.612 294.512C505.404 297.584 506.3 301.2 506.3 305.36C506.3 309.456 505.404 313.072 503.612 316.208C501.884 319.28 499.42 321.68 496.22 323.408C493.084 325.136 489.404 326 485.18 326H462.524ZM471.164 318.128H484.7C488.476 318.128 491.516 316.976 493.82 314.672C496.188 312.304 497.372 309.2 497.372 305.36C497.372 301.52 496.188 298.448 493.82 296.144C491.516 293.776 488.476 292.592 484.7 292.592H471.164V318.128ZM517.398 326L517.207 255.92H525.271V319.472H536.503V255.92H543.415V319.472H554.551V255.92H562.519V326H517.398ZM578.225 326V255.92H618.545V263.792H586.769V285.488H615.185V293.264H586.769V318.128H618.545V326H578.225ZM642.028 341.36L649.708 311.504H662.188L649.708 341.36H642.028ZM32.84 453V426.024C32.008 426.216 30.44 426.44 28.136 426.696C25.896 426.888 23.144 426.984 19.88 426.984C13.864 426.984 9.064 425.16 5.48 421.512C1.96 417.864 0.2 412.968 0.2 406.824V382.92H8.84V406.824C8.84 410.6 9.96 413.64 12.2 415.944C14.504 418.184 17.544 419.304 21.32 419.304C24.392 419.304 26.92 419.208 28.904 419.016C30.888 418.76 32.2 418.536 32.84 418.344V382.92H41.48V453H32.84ZM60.1625 453V382.92H100.483V390.792H68.7065V412.488H97.1225V420.264H68.7065V445.128H100.483V453H60.1625ZM115.421 453V382.92H126.749L134.045 405.576C134.749 407.624 135.389 409.672 135.965 411.72C136.541 413.704 136.957 415.24 137.213 416.328C137.533 415.24 137.949 413.704 138.461 411.72C138.973 409.672 139.549 407.592 140.189 405.48L147.101 382.92H158.429V453H149.981V427.56C149.981 424.744 150.077 421.544 150.269 417.96C150.461 414.376 150.717 410.728 151.037 407.016C151.357 403.24 151.677 399.656 151.997 396.264C152.381 392.808 152.701 389.8 152.957 387.24L141.629 422.28H132.509L121.085 387.24C121.405 389.736 121.725 392.648 122.045 395.976C122.365 399.24 122.653 402.728 122.909 406.44C123.165 410.088 123.389 413.736 123.581 417.384C123.773 421.032 123.869 424.424 123.869 427.56V453H115.421Z" fill="white"/>
<path d="M232.082 453V382.92H240.722V412.968H251.09L266.642 382.92H276.05L258.674 416.616L277.01 453H267.122L250.802 420.552H240.722V453H232.082ZM309.613 453.96C305.389 453.96 301.741 453.16 298.669 451.56C295.661 449.96 293.325 447.656 291.661 444.648C290.061 441.576 289.261 437.96 289.261 433.8V402.12C289.261 397.896 290.061 394.28 291.661 391.272C293.325 388.264 295.661 385.96 298.669 384.36C301.741 382.76 305.389 381.96 309.613 381.96C313.837 381.96 317.453 382.76 320.461 384.36C323.533 385.96 325.869 388.264 327.469 391.272C329.133 394.28 329.965 397.864 329.965 402.024V433.8C329.965 437.96 329.133 441.576 327.469 444.648C325.869 447.656 323.533 449.96 320.461 451.56C317.453 453.16 313.837 453.96 309.613 453.96ZM309.613 446.184C313.389 446.184 316.269 445.128 318.253 443.016C320.301 440.84 321.325 437.768 321.325 433.8V402.12C321.325 398.152 320.301 395.112 318.253 393C316.269 390.824 313.389 389.736 309.613 389.736C305.901 389.736 303.021 390.824 300.973 393C298.925 395.112 297.901 398.152 297.901 402.12V433.8C297.901 437.768 298.925 440.84 300.973 443.016C303.021 445.128 305.901 446.184 309.613 446.184ZM347.303 453V382.92H367.175C373.575 382.92 378.567 384.52 382.151 387.72C385.799 390.92 387.623 395.368 387.623 401.064C387.623 404.264 386.951 407.048 385.607 409.416C384.263 411.784 382.343 413.608 379.847 414.888C377.415 416.168 374.471 416.776 371.015 416.712V415.272C374.727 415.208 377.927 415.912 380.615 417.384C383.367 418.856 385.479 420.968 386.951 423.72C388.487 426.472 389.255 429.736 389.255 433.512C389.255 437.48 388.423 440.936 386.759 443.88C385.095 446.824 382.727 449.096 379.655 450.696C376.583 452.232 372.903 453 368.615 453H347.303ZM355.751 445.224H367.655C371.687 445.224 374.855 444.168 377.159 442.056C379.527 439.88 380.711 436.936 380.711 433.224C380.711 429.384 379.527 426.28 377.159 423.912C374.855 421.48 371.687 420.264 367.655 420.264H355.751V445.224ZM355.751 412.776H367.079C370.791 412.776 373.703 411.784 375.815 409.8C377.991 407.816 379.079 405.128 379.079 401.736C379.079 398.344 378.023 395.656 375.911 393.672C373.799 391.688 370.887 390.696 367.175 390.696H355.751V412.776ZM424.738 453.96C420.514 453.96 416.866 453.16 413.794 451.56C410.786 449.96 408.45 447.656 406.786 444.648C405.186 441.576 404.386 437.96 404.386 433.8V402.12C404.386 397.896 405.186 394.28 406.786 391.272C408.45 388.264 410.786 385.96 413.794 384.36C416.866 382.76 420.514 381.96 424.738 381.96C428.962 381.96 432.578 382.76 435.586 384.36C438.658 385.96 440.994 388.264 442.594 391.272C444.258 394.28 445.09 397.864 445.09 402.024V433.8C445.09 437.96 444.258 441.576 442.594 444.648C440.994 447.656 438.658 449.96 435.586 451.56C432.578 453.16 428.962 453.96 424.738 453.96ZM424.738 446.184C428.514 446.184 431.394 445.128 433.378 443.016C435.426 440.84 436.45 437.768 436.45 433.8V402.12C436.45 398.152 435.426 395.112 433.378 393C431.394 390.824 428.514 389.736 424.738 389.736C421.026 389.736 418.146 390.824 416.098 393C414.05 395.112 413.026 398.152 413.026 402.12V433.8C413.026 437.768 414.05 440.84 416.098 443.016C418.146 445.128 421.026 446.184 424.738 446.184ZM462.332 453V382.92H484.892C489.244 382.92 493.02 383.784 496.22 385.512C499.42 387.176 501.884 389.544 503.612 392.616C505.404 395.688 506.3 399.336 506.3 403.56C506.3 407.72 505.404 411.368 503.612 414.504C501.884 417.576 499.42 419.976 496.22 421.704C493.02 423.368 489.244 424.2 484.892 424.2H470.972V453H462.332ZM470.972 416.424H484.892C488.668 416.424 491.676 415.272 493.916 412.968C496.22 410.6 497.372 407.464 497.372 403.56C497.372 399.592 496.22 396.456 493.916 394.152C491.676 391.848 488.668 390.696 484.892 390.696H470.972V416.424ZM519.895 453V382.92H528.535V412.968H538.903L554.455 382.92H563.863L546.487 416.616L564.823 453H554.935L538.615 420.552H528.535V453H519.895ZM577.265 453V382.92H585.617V422.28C585.617 424.584 585.553 427.048 585.425 429.672C585.361 432.232 585.265 434.696 585.137 437.064C585.009 439.368 584.881 441.32 584.753 442.92L606.065 382.92H617.585V453H609.233V413.64C609.233 411.272 609.265 408.808 609.329 406.248C609.457 403.624 609.585 401.16 609.713 398.856C609.905 396.488 610.065 394.536 610.193 393L588.785 453H577.265ZM635.116 453V382.92H643.756V412.872H666.22V382.92H674.86V453H666.22V420.744H643.756V453H635.116ZM694.31 453V382.92H735.11V390.792H702.95V453H694.31Z" fill="#FF0000"/>
</svg>
