<svg width="812" height="344" viewBox="0 0 812 344" fill="none" xmlns="http://www.w3.org/2000/svg">
<path d="M4.07394 52.528C-0.628484 68.3382 5.29935 87.0045 21.1796 107.532C37.0151 128.002 62.408 149.855 95.5367 171.762C161.767 215.559 258.421 259.25 369.797 292.377C481.172 325.503 585.993 341.736 665.393 341.255C705.109 341.013 738.318 336.59 762.766 328.102C787.284 319.59 802.449 307.197 807.152 291.387C811.854 275.577 805.926 256.911 790.046 236.383C774.211 215.913 748.818 194.06 715.689 172.153C649.459 128.356 552.804 84.6649 441.429 51.5386C330.054 18.4123 225.233 2.17875 145.833 2.6606C106.116 2.90161 72.908 7.32494 48.4596 15.8131C23.942 24.3253 8.77637 36.7178 4.07394 52.528Z" stroke="white" stroke-width="5"/>
</svg>
